<svg width="56" height="56" viewBox="0 0 56 56" fill="none" xmlns="http://www.w3.org/2000/svg">
<path d="M55.1623 34.7733C51.4227 49.7735 36.23 58.9023 21.2281 55.1617C6.23246 51.4221 -2.89634 36.2284 0.844907 21.2295C4.58287 6.22773 19.7756 -2.90175 34.7729 0.837856C49.7737 4.57746 58.9019 19.7728 55.1619 34.7736L55.1622 34.7733H55.1623Z" fill="#F7931A"/>
<path fill-rule="evenodd" clip-rule="evenodd" d="M40.3498 24.0104C40.9071 20.2842 38.0703 18.2812 34.1911 16.945L35.4495 11.8976L32.377 11.132L31.1519 16.0465C30.3442 15.8451 29.5146 15.6552 28.6902 15.4671L29.9241 10.5201L26.8535 9.75446L25.5944 14.8003C24.926 14.6481 24.2694 14.4977 23.6325 14.3392L23.636 14.3233L19.3989 13.2652L18.5816 16.5469C18.5816 16.5469 20.8612 17.0694 20.8131 17.1016C22.0573 17.4121 22.2823 18.2358 22.245 18.8886L20.8115 24.6388C20.8972 24.6606 21.0083 24.6921 21.1309 24.7413L21.0417 24.7191C20.9659 24.7001 20.8871 24.6804 20.8062 24.661L18.7969 32.7162C18.6448 33.0943 18.2589 33.6615 17.389 33.4461C17.4198 33.4907 15.1558 32.8888 15.1558 32.8888L13.6304 36.4059L17.6288 37.4027C18.0666 37.5124 18.4992 37.6252 18.9274 37.7369L18.9276 37.7369C19.2269 37.8149 19.5241 37.8924 19.8194 37.9679L18.5479 43.0732L21.6169 43.8388L22.876 38.7877C23.7145 39.0153 24.5281 39.2252 25.3246 39.4231L24.0698 44.4505L27.1424 45.2161L28.4137 40.1203C33.6531 41.1119 37.5926 40.7121 39.2508 35.9731C40.587 32.1577 39.1843 29.957 36.4279 28.5219C38.4355 28.0589 39.9477 26.7384 40.3509 24.0108L40.35 24.0101L40.3498 24.0104ZM33.3296 33.8543C32.4585 37.3548 26.9792 35.9076 24.4722 35.2455L24.472 35.2454C24.2466 35.1859 24.0452 35.1327 23.8733 35.09L25.5606 28.3263C25.7701 28.3786 26.0261 28.4361 26.3161 28.5012C28.9092 29.0831 34.2222 30.2755 33.3298 33.8543H33.3296ZM26.8362 25.3622C28.9263 25.92 33.4858 27.1368 34.2799 23.9553H34.2801C35.091 20.7013 30.6599 19.7203 28.4958 19.2412C28.2523 19.1873 28.0375 19.1397 27.8622 19.096L26.3325 25.2303C26.4769 25.2663 26.6464 25.3115 26.8362 25.3622Z" fill="white"/>
</svg>
